<?xml version="1.0" encoding="UTF-8"?>
<svg id="Capa_1" xmlns="http://www.w3.org/2000/svg" version="1.1" viewBox="0 0 287.1 43.15">
  <!-- Generator: Adobe Illustrator 30.5.1, SVG Export Plug-In . SVG Version: 2.1.4 Build 3)  -->
  <defs>
    <style>
      .st0 {
        fill-rule: evenodd;
      }

      .st0, .st1 {
        fill: #fff;
      }
    </style>
  </defs>
  <path class="st0" d="M69.06,1.59l-6.21,9.21-6.78,10.04,14.46,21.48h-16.22l-6.78-10.94-6.83,10.94h-15.9l14.46-21.37L25.43.31h10.83c3.97,0,6.46,1.65,7.6,3.6l3.94,6.42,4.08-6.58c1.19-1.87,3.66-3.43,7.51-3.43h10.55l-.88,1.28ZM96.72,6.39v17.21c0,2.57-.62,4.38-1.84,5.5-1.22,1.09-2.81,1.65-4.76,1.65s-3.49-.59-4.73-1.76c-1.25-1.17-1.87-3.07-1.87-5.66V.31h-6.49l-8.02,11.94v11.21c0,3.49.51,6.47,1.5,8.95.99,2.48,2.41,4.52,4.22,6.11,1.84,1.59,4.03,2.76,6.61,3.51,2.58.73,5.47,1.12,8.62,1.12s6.07-.36,8.7-1.12c2.64-.75,4.85-1.9,6.72-3.51,1.84-1.59,3.29-3.65,4.31-6.19,1.02-2.51,1.53-5.58,1.53-9.18V.31h-6.21c-5.58,0-8.28,3.32-8.28,6.08ZM151.6,30.32h-19.82V.31h-6.21c-5.61,0-8.31,3.32-8.31,6.08v35.93h26.28l8.05-12ZM23.64,20.92c-3.71,0-6.12,1.45-7.34,3.21l-12.25,18.19h7.17l14.4-21.4h-1.98ZM16.5,10.21h1.96v.03L7.17,27H0l9.16-13.59c1.22-1.76,3.63-3.21,7.34-3.21Z"/>
  <path class="st1" d="M170.69,19.01c-1.58,0-2.71-.33-3.38-.99-.67-.66-1.01-1.75-1.05-3.28-.02-.76-.03-1.59-.03-2.49,0-.9-.01-1.82-.01-2.76s0-1.87.01-2.76c0-.91.02-1.74.03-2.51.02-1.32.38-2.35,1.07-3.1.7-.75,1.82-1.13,3.36-1.13s2.62.33,3.3.99c.68.65,1.04,1.73,1.08,3.25,0,.27.01.57.01.91s0,.67-.01,1.01c0,.33-.01.63-.02.89h-3c0-.32.02-.67.02-1.07,0-.4.01-.81.01-1.21s0-.76-.01-1.08c0-.41-.13-.72-.37-.93-.23-.21-.57-.31-1.01-.31s-.81.1-1.05.31c-.24.21-.37.52-.38.93-.03.9-.05,1.84-.07,2.82,0,.98-.01,1.98-.01,2.98s0,2,.01,2.98c.02.98.04,1.91.07,2.81.02.42.14.74.38.95.24.21.59.31,1.05.31.48,0,.84-.1,1.09-.31.25-.22.38-.53.38-.95,0-.32.01-.68.01-1.09,0-.41,0-.82,0-1.23,0-.41,0-.77-.01-1.08h3c.02.44.02.92.02,1.43s0,.98-.02,1.43c-.04,1.53-.41,2.62-1.1,3.28-.69.66-1.81.99-3.37.99ZM181.28,19c-1.55,0-2.67-.33-3.36-.98-.69-.66-1.05-1.75-1.08-3.28-.01-.84-.03-1.71-.05-2.59,0-.88-.01-1.77-.01-2.66s0-1.79.01-2.67c.01-.88.03-1.75.05-2.6.03-1.52.39-2.6,1.08-3.25.69-.65,1.81-.98,3.36-.98s2.67.33,3.35.98c.67.65,1.03,1.73,1.08,3.25.02.86.04,1.73.06,2.61.01.88.02,1.77.02,2.67s0,1.78-.02,2.66c-.02.88-.04,1.73-.06,2.58-.05,1.53-.41,2.62-1.08,3.28-.67.65-1.79.98-3.35.98ZM181.28,16.55c.48,0,.84-.1,1.07-.31.23-.21.35-.52.36-.94.03-.88.05-1.8.07-2.79.01-.99.02-2,.02-3.02s0-2.04-.02-3.02c-.02-.98-.04-1.91-.07-2.79,0-.41-.13-.72-.37-.92-.24-.21-.59-.31-1.06-.31s-.82.1-1.06.31c-.24.2-.37.51-.38.92-.03.87-.06,1.8-.08,2.79-.01.98-.02,1.99-.02,3.02s0,2.03.02,3.02c.02.98.05,1.91.08,2.79.02.42.14.73.38.94.24.21.59.31,1.06.31ZM187.64,18.79V.21h4.91l1.43,7.18.41,8.73h.57l.38-8.73,1.45-7.18h4.89v18.58h-3.01v-5.64l.58-10.29h-.6l-1.05,10.49-1.29,5.42h-3.32l-1.27-5.42-1.06-10.49h-.58l.56,10.29v5.64h-3.01ZM207.96,19c-1.57,0-2.7-.33-3.38-.98-.68-.66-1.03-1.75-1.06-3.28-.03-2.41-.05-4.83-.05-7.27s.01-4.87.05-7.27h3.01c-.03,1.6-.05,3.26-.06,4.98,0,1.71,0,3.42.01,5.13,0,1.71.02,3.37.04,4.97,0,.41.12.72.37.94.25.21.6.31,1.07.31s.82-.1,1.06-.31c.24-.22.36-.53.36-.94.02-1.6.03-3.26.04-4.97.01-1.71.02-3.42.01-5.13,0-1.72-.02-3.38-.05-4.98h3c.04,2.4.06,4.82.06,7.27s-.02,4.86-.06,7.27c-.02,1.53-.37,2.62-1.05,3.28-.67.65-1.8.98-3.37.98ZM214.21,18.79V.21h4.44l1.31,5.91,1.35,10.02h.58l-.55-8.32-.24-7.62h2.9v18.58h-4.64l-1.34-6.23-1.05-9.73h-.63l.51,8.87.26,7.08h-2.9ZM226,18.79V.21h3.01v18.58h-3.01ZM235.36,19.01c-1.58,0-2.71-.33-3.38-.99-.67-.66-1.01-1.75-1.05-3.28-.01-.76-.03-1.59-.04-2.49,0-.9-.01-1.82-.01-2.76s0-1.87.01-2.76c0-.91.02-1.74.04-2.51.02-1.32.38-2.35,1.07-3.1.7-.75,1.81-1.13,3.36-1.13s2.62.33,3.3.99c.68.65,1.04,1.73,1.08,3.25,0,.27.01.57.01.91s0,.67-.01,1.01c0,.33-.02.63-.02.89h-3c0-.32.02-.67.02-1.07,0-.4.01-.81.01-1.21s0-.76-.01-1.08c0-.41-.13-.72-.37-.93-.23-.21-.57-.31-1.01-.31s-.8.1-1.04.31c-.24.21-.37.52-.38.93-.03.9-.05,1.84-.07,2.82,0,.98-.01,1.98-.01,2.98s0,2,.01,2.98c.02.98.04,1.91.07,2.81.01.42.14.74.38.95.24.21.59.31,1.04.31.48,0,.84-.1,1.09-.31.25-.22.38-.53.38-.95,0-.32.01-.68.01-1.09,0-.41,0-.82,0-1.23,0-.41,0-.77-.01-1.08h3c.01.44.02.92.02,1.43s0,.98-.02,1.43c-.04,1.53-.41,2.62-1.1,3.28-.69.66-1.81.99-3.37.99ZM240.75,18.79L243.18.21h4.83l2.43,18.58h-3.08l-.42-4.26h-2.7l-.42,4.26h-3.08ZM244.53,11.88h2.14l-.41-4.09-.34-4.94h-.65l-.34,4.94-.41,4.09ZM251.75,18.79V.21h4.91l1.43,7.18.41,8.73h.57l.38-8.73,1.45-7.18h4.89v18.58h-3.01v-5.64l.58-10.29h-.6l-1.05,10.49-1.29,5.42h-3.32l-1.27-5.42-1.06-10.49h-.58l.56,10.29v5.64h-3.01ZM272.15,19c-1.55,0-2.67-.33-3.36-.98-.69-.66-1.05-1.75-1.08-3.28-.02-.84-.03-1.71-.05-2.59,0-.88-.01-1.77-.01-2.66s0-1.79.01-2.67c.02-.88.03-1.75.05-2.6.03-1.52.39-2.6,1.08-3.25s1.81-.98,3.36-.98,2.67.33,3.35.98c.67.65,1.03,1.73,1.08,3.25.02.86.04,1.73.06,2.61.02.88.02,1.77.02,2.67s0,1.78-.02,2.66c-.02.88-.04,1.73-.06,2.58-.05,1.53-.41,2.62-1.08,3.28-.67.65-1.79.98-3.35.98ZM272.15,16.55c.48,0,.84-.1,1.07-.31.23-.21.35-.52.36-.94.03-.88.05-1.8.07-2.79.01-.99.02-2,.02-3.02s0-2.04-.02-3.02c-.02-.98-.04-1.91-.07-2.79,0-.41-.13-.72-.37-.92-.24-.21-.59-.31-1.06-.31s-.82.1-1.06.31c-.24.2-.37.51-.38.92-.03.87-.06,1.8-.08,2.79-.01.98-.02,1.99-.02,3.02s0,2.03.02,3.02c.02.98.05,1.91.08,2.79.02.42.14.73.38.94.24.21.59.31,1.06.31ZM282.65,19c-1.54,0-2.64-.33-3.3-.99-.66-.66-1.02-1.75-1.09-3.28,0-.3-.01-.62-.01-.94s0-.65.02-.96c.02-.33.04-.64.07-.95h2.82c-.03.6-.05,1.19-.06,1.78,0,.58.02,1.12.06,1.63.04.42.17.74.41.95.24.21.6.31,1.08.31s.82-.1,1.03-.31c.22-.22.34-.53.38-.95.03-.31.05-.6.06-.88.02-.28.02-.56,0-.85,0-.29-.03-.59-.06-.91-.02-.39-.12-.73-.29-1.02-.16-.29-.44-.49-.83-.59l-1.73-.44c-.75-.19-1.34-.47-1.78-.84-.43-.37-.75-.84-.94-1.39-.19-.56-.29-1.22-.31-1.97,0-.38-.01-.74-.01-1.09s0-.71.01-1.06c.04-1.01.2-1.83.5-2.45.3-.63.77-1.08,1.4-1.36.64-.29,1.49-.43,2.55-.43,1.49,0,2.58.33,3.24.99.67.65,1.04,1.73,1.1,3.25.02.36.02.79.01,1.31,0,.52-.02,1.02-.05,1.5h-2.88c.02-.56.04-1.11.05-1.67,0-.57,0-1.13-.02-1.68-.02-.41-.15-.72-.41-.93-.25-.21-.6-.31-1.05-.31-.48,0-.83.1-1.06.31-.22.21-.36.52-.41.93-.04.45-.06.9-.06,1.35s.02.9.06,1.35c.04.4.14.74.3,1.02.17.28.46.47.88.57l1.52.36c.8.19,1.42.48,1.88.87.46.38.78.86.98,1.43.2.57.31,1.24.34,2.01,0,.26.01.5.01.73s0,.45-.01.67c0,.22,0,.45-.02.69-.06,1.53-.43,2.62-1.09,3.28-.66.66-1.77.99-3.32.99ZM166.34,41.79v-18.58h3.01v15.93h4.35v2.65h-7.36ZM179.24,42c-1.55,0-2.67-.33-3.36-.98-.69-.66-1.05-1.75-1.08-3.28-.01-.84-.03-1.71-.05-2.59,0-.88-.01-1.77-.01-2.66s0-1.79.01-2.67c.01-.88.03-1.75.05-2.6.03-1.52.39-2.6,1.08-3.25.69-.65,1.81-.98,3.36-.98s2.67.33,3.35.98,1.03,1.73,1.08,3.25c.02.86.04,1.73.06,2.61.02.88.02,1.77.02,2.67s0,1.78-.02,2.66c-.01.88-.04,1.73-.06,2.58-.05,1.53-.41,2.62-1.08,3.28-.67.65-1.79.98-3.35.98ZM179.24,39.55c.48,0,.84-.1,1.07-.31.23-.21.35-.52.36-.94.03-.88.05-1.8.07-2.79.02-.99.02-2,.02-3.02s0-2.04-.02-3.02c-.01-.98-.04-1.91-.07-2.79,0-.41-.13-.72-.37-.92-.24-.21-.59-.31-1.06-.31s-.82.1-1.06.31c-.24.2-.37.51-.38.92-.03.87-.06,1.8-.08,2.79-.02.98-.02,1.99-.02,3.02s0,2.03.02,3.02c.02.98.05,1.91.08,2.79.01.42.14.73.38.94.24.21.59.31,1.06.31ZM190.64,41.79v-18.58h4.08c1.56,0,2.69.32,3.38.96.7.64,1.07,1.7,1.13,3.18.02.75.03,1.44.03,2.07s-.01,1.28-.03,1.97c-.05,1.48-.43,2.54-1.13,3.19-.7.64-1.83.96-3.39.96h-1.06v6.24h-3.01ZM193.65,32.91h1.06c.5,0,.88-.12,1.11-.35.25-.23.38-.57.41-1,.02-.44.04-.91.05-1.42,0-.51,0-1.02,0-1.52,0-.51-.02-.98-.05-1.42-.02-.44-.16-.77-.41-1-.24-.23-.61-.35-1.1-.35h-1.07v7.05ZM205.05,42c-1.57,0-2.7-.33-3.38-.98-.68-.66-1.03-1.75-1.06-3.28-.03-2.41-.05-4.83-.05-7.27s.02-4.87.05-7.27h3.01c-.03,1.6-.05,3.26-.06,4.98,0,1.71,0,3.42.01,5.13,0,1.71.02,3.37.03,4.97,0,.41.12.72.37.94.25.21.6.31,1.07.31s.82-.1,1.06-.31c.24-.22.36-.53.36-.94.01-1.6.03-3.26.03-4.97.02-1.71.02-3.42.01-5.13,0-1.72-.02-3.38-.05-4.98h3c.04,2.4.06,4.82.06,7.27s-.02,4.86-.06,7.27c-.02,1.53-.37,2.62-1.04,3.28-.67.65-1.8.98-3.37.98ZM204.21,22.28l2.09-3.08h1.96l-2.19,3.08h-1.86ZM211.3,41.79v-18.58h3.91c1.56,0,2.71.32,3.43.96.72.64,1.08,1.7,1.09,3.18v.99c0,.29,0,.58-.02.87-.05.79-.22,1.42-.52,1.89-.29.46-.76.8-1.39,1.01v.53c.66.21,1.14.55,1.44,1.02.3.47.47,1.12.5,1.94.01.36.02.7.02,1.01s0,.65-.02,1.02c-.06,1.47-.44,2.53-1.13,3.18-.69.64-1.82.96-3.38.96h-3.93ZM214.31,39.14h.92c.49,0,.86-.13,1.11-.38.26-.26.39-.65.39-1.15,0-.33.01-.63.01-.93s0-.61-.01-.93c0-.75-.12-1.28-.37-1.59-.24-.32-.63-.48-1.16-.48h-.89v5.46ZM214.31,31.04h.91c.5,0,.87-.16,1.13-.49.26-.33.39-.8.39-1.42v-1.93c0-.44-.14-.77-.39-1-.26-.23-.63-.35-1.13-.35h-.91v5.18ZM221.56,41.79v-18.58h3.01v15.93h4.36v2.65h-7.36ZM230.24,41.79v-18.58h3.01v18.58h-3.01ZM239.6,42.01c-1.58,0-2.71-.33-3.38-.99-.67-.66-1.01-1.75-1.05-3.28-.01-.76-.03-1.59-.03-2.49,0-.9-.01-1.82-.01-2.76s0-1.87.01-2.76c0-.91.02-1.74.03-2.51.02-1.32.38-2.35,1.07-3.1.7-.75,1.82-1.13,3.36-1.13s2.62.33,3.3.99c.68.65,1.04,1.73,1.08,3.25,0,.27.01.57.01.91s0,.67-.01,1.01c0,.33-.02.63-.02.89h-3c0-.32.02-.67.02-1.07,0-.4.01-.81.01-1.21s0-.76-.01-1.08c0-.41-.13-.72-.37-.93-.23-.21-.57-.31-1.01-.31s-.8.1-1.04.31c-.24.21-.37.52-.38.93-.03.9-.05,1.84-.07,2.82,0,.98-.01,1.98-.01,2.98s0,2,.01,2.98c.02.98.04,1.91.07,2.81.01.42.14.74.38.95.24.21.59.31,1.04.31.48,0,.84-.1,1.09-.31.25-.22.38-.53.38-.95,0-.32.01-.68.01-1.09,0-.41,0-.82,0-1.23,0-.41,0-.77-.01-1.08h3c.01.44.02.92.02,1.43s0,.98-.02,1.43c-.04,1.53-.41,2.62-1.1,3.28-.69.66-1.81.99-3.37.99ZM250.2,42c-1.55,0-2.67-.33-3.36-.98-.69-.66-1.05-1.75-1.08-3.28-.02-.84-.03-1.71-.05-2.59,0-.88-.01-1.77-.01-2.66s0-1.79.01-2.67c.02-.88.03-1.75.05-2.6.03-1.52.39-2.6,1.08-3.25.69-.65,1.81-.98,3.36-.98s2.67.33,3.34.98c.67.65,1.03,1.73,1.08,3.25.02.86.04,1.73.06,2.61.02.88.02,1.77.02,2.67s0,1.78-.02,2.66c-.01.88-.03,1.73-.06,2.58-.05,1.53-.41,2.62-1.08,3.28-.67.65-1.79.98-3.34.98ZM250.2,39.55c.48,0,.84-.1,1.07-.31.23-.21.35-.52.36-.94.03-.88.05-1.8.07-2.79.01-.99.02-2,.02-3.02s0-2.04-.02-3.02c-.02-.98-.04-1.91-.07-2.79,0-.41-.13-.72-.37-.92-.24-.21-.59-.31-1.06-.31s-.82.1-1.06.31c-.24.2-.37.51-.38.92-.03.87-.06,1.8-.08,2.79-.02.98-.02,1.99-.02,3.02s0,2.03.02,3.02c.02.98.05,1.91.08,2.79.02.42.14.73.38.94.24.21.59.31,1.06.31Z"/>
</svg>